<?xml version="1.0" encoding="UTF-8" standalone="no"?>
<!-- Created with Inkscape (http://www.inkscape.org/) -->

<svg
   width="385.99997"
   height="70.000015"
   viewBox="0 0 102.12916 18.520837"
   version="1.1"
   id="svg1"
   xml:space="preserve"
   xmlns:xlink="http://www.w3.org/1999/xlink"
   xmlns="http://www.w3.org/2000/svg"
   xmlns:svg="http://www.w3.org/2000/svg"><defs
     id="defs1"><style
       id="style1">.cls-1{fill:url(#linear-gradient);}.cls-1,.cls-2{stroke-width:0px;}.cls-2{fill:#1a1a1a;}</style><linearGradient
       id="linear-gradient"
       x1="396.04001"
       y1="4.3600001"
       x2="346.62"
       y2="89.949997"
       gradientUnits="userSpaceOnUse"><stop
         offset="0"
         stop-color="#90f"
         id="stop1" /><stop
         offset=".08"
         stop-color="#8b00ff"
         id="stop2" /><stop
         offset=".22"
         stop-color="#6800ff"
         id="stop3" /><stop
         offset=".23"
         stop-color="#60f"
         id="stop4" /><stop
         offset=".3"
         stop-color="#5035f4"
         id="stop5" /><stop
         offset=".4"
         stop-color="#3871e9"
         id="stop6" /><stop
         offset=".48"
         stop-color="#24a4df"
         id="stop7" /><stop
         offset=".57"
         stop-color="#14cbd7"
         id="stop8" /><stop
         offset=".64"
         stop-color="#09e7d2"
         id="stop9" /><stop
         offset=".71"
         stop-color="#02f8cf"
         id="stop10" /><stop
         offset=".76"
         stop-color="#00ffce"
         id="stop11" /><stop
         offset="1"
         stop-color="#0f9"
         id="stop12" /></linearGradient><linearGradient
       xlink:href="#linear-gradient"
       id="linearGradient12"
       gradientUnits="userSpaceOnUse"
       gradientTransform="matrix(0.47664528,0,0,0.47664528,58.092491,51.485517)"
       x1="111.12499"
       y1="26.458326"
       x2="108.47916"
       y2="79.374992" /></defs><g
     id="layer1"
     transform="translate(-70.643744,-63.499996)"><rect
       style="fill:none;stroke-width:0.176389"
       id="rect12"
       width="102.12917"
       height="18.520832"
       x="70.643745"
       y="63.499996" /><path
       style="font-size:24.2136px;line-height:1;font-family:Mulish;-inkscape-font-specification:'Mulish, @wght=900';font-variation-settings:'wght' 900;letter-spacing:0.0390948px;fill:url(#linearGradient12);stroke-width:0px"
       d="M 70.703767,81.486153 V 64.415565 h 4.479516 v 7.312507 h 0.04843 l 6.537672,-7.312507 h 5.230138 l -8.281052,8.983245 v -1.767593 l 8.74111,9.854936 H 82.059945 L 75.23171,73.786228 h -0.04843 v 7.699925 z m 16.843345,0 V 69.185644 h 4.310021 v 12.300509 z m -0.09685,-14.043888 v -3.874176 h 4.527943 v 3.874176 z m 13.404998,14.310237 q -2.615063,0 -3.946811,-1.234893 -1.307534,-1.259108 -1.307534,-3.801536 v -4.358448 h -2.300292 v -3.171981 h 2.300292 v -2.905632 l 4.31002,-1.016971 v 3.922603 h 3.002485 v 3.171981 h -3.002485 v 4.188953 q 0,1.065399 0.484265,1.428603 0.48428,0.33899 1.16226,0.33899 0.41163,0 0.70219,-0.04843 0.31478,-0.07264 0.65377,-0.193709 v 3.317263 q -0.5327,0.217923 -1.0654,0.290563 -0.50849,0.07264 -0.99276,0.07264 z m 8.48963,0 q -1.71916,0 -3.12355,-0.33899 -1.38018,-0.363204 -2.34872,-0.968544 l 1.04118,-2.808778 q 0.94433,0.532699 2.10659,0.87169 1.18646,0.33899 2.34872,0.33899 0.92011,0 1.33174,-0.266349 0.43585,-0.290564 0.43585,-0.750622 0,-0.363204 -0.26635,-0.581126 -0.26635,-0.217923 -0.79905,-0.314777 l -2.61507,-0.460059 q -1.54967,-0.290563 -2.42136,-1.138039 -0.84747,-0.871689 -0.84747,-2.251865 0,-1.259107 0.67798,-2.179224 0.67798,-0.94433 1.93708,-1.452816 1.25911,-0.532699 2.97828,-0.532699 1.40439,0 2.66349,0.314777 1.28332,0.314777 2.22765,0.992758 l -1.11382,2.736136 q -0.75062,-0.508485 -1.76759,-0.823262 -0.99276,-0.33899 -1.86445,-0.33899 -1.04119,0 -1.47703,0.314776 -0.43585,0.290564 -0.43585,0.726408 0,0.338991 0.24214,0.581127 0.24214,0.217922 0.77484,0.314777 l 2.61506,0.460058 q 1.5981,0.26635 2.44558,1.113826 0.87169,0.823262 0.87169,2.251864 0,1.331748 -0.72641,2.276079 -0.70219,0.920117 -1.9613,1.428602 -1.25911,0.484272 -2.92985,0.484272 z m 12.09748,0 q -2.34871,0 -3.48675,-1.283321 -1.11383,-1.307534 -1.11383,-3.946816 v -7.336721 h 4.31002 v 7.360934 q 0,0.968544 0.38742,1.452816 0.41163,0.460059 1.21068,0.460059 0.94433,0 1.52546,-0.653768 0.60534,-0.67798 0.60534,-1.767592 v -6.852449 h 4.31002 v 12.300509 h -4.18896 v -2.203438 h 0.36321 q -0.58113,1.186466 -1.57389,1.840234 -0.99275,0.629553 -2.34872,0.629553 z m 10.47516,-0.266349 v -8.959032 q 0,-0.823263 -0.0484,-1.670739 -0.0484,-0.847476 -0.14528,-1.670738 h 4.16474 l 0.24214,2.130797 h -0.26635 q 0.60534,-1.162253 1.71916,-1.767593 1.11383,-0.629554 2.51822,-0.629554 2.15501,0 3.2204,1.283321 1.08962,1.259107 1.08962,3.946817 v 7.336721 h -4.31002 v -7.143012 q 0,-1.186467 -0.41164,-1.646525 -0.41163,-0.484272 -1.18646,-0.484272 -1.01697,0 -1.64653,0.677981 -0.62955,0.653767 -0.62955,1.743379 v 6.852449 z m 21.61339,0.266349 q -2.22765,0 -3.80153,-0.774835 -1.57389,-0.774835 -2.42136,-2.227651 -0.82326,-1.452816 -0.82326,-3.438331 0,-1.864448 0.77483,-3.317264 0.77484,-1.452816 2.17922,-2.251864 1.40439,-0.823263 3.29305,-0.823263 1.86445,0 3.09935,0.823263 1.2591,0.799048 1.88866,2.227651 0.62955,1.404389 0.62955,3.268836 v 0.920117 h -8.25684 v -2.033943 h 5.08486 l -0.41163,0.338991 q 0,-1.380176 -0.5327,-2.033943 -0.50849,-0.677981 -1.45282,-0.677981 -0.72641,0 -1.23489,0.363204 -0.48427,0.363204 -0.75062,1.089612 -0.24214,0.702195 -0.24214,1.791807 v 0.435845 q 0,1.622311 0.79905,2.372932 0.79905,0.750622 2.30029,0.750622 0.96855,0 1.81602,-0.217922 0.87169,-0.217923 1.64653,-0.702195 l 1.11382,2.808778 q -0.92012,0.629553 -2.1308,0.968544 -1.21068,0.33899 -2.56664,0.33899 z m 7.23054,-0.266349 v -3.268836 l 5.18171,-5.399633 q 0.94433,-0.968544 1.35596,-1.694952 0.41163,-0.726408 0.41163,-1.47703 0,-0.920117 -0.62955,-1.380175 -0.60534,-0.460058 -1.76759,-0.460058 -0.96855,0 -1.98552,0.363204 -0.99275,0.33899 -2.00973,1.113825 l -1.38017,-3.244622 q 1.13804,-0.87169 2.73614,-1.380175 1.59809,-0.508486 3.29305,-0.508486 1.9613,0 3.31726,0.581126 1.35596,0.581127 2.05815,1.694952 0.72641,1.089612 0.72641,2.711924 0,1.54967 -0.72641,2.978272 -0.70219,1.404389 -2.34871,3.002487 l -3.97103,3.874176 v -1.138039 h 7.67571 v 3.63204 z"
       id="text12"
       aria-label="Kitsune2" /></g></svg>
